<mxfile host="app.diagrams.net" modified="2020-04-29T07:43:05.986Z" agent="5.0 (Windows NT 10.0; Win64; x64) AppleWebKit/537.36 (KHTML, like Gecko) Chrome/81.0.4044.122 Safari/537.36" etag="PQTiMqS3AOl1oCviYJMy" version="13.0.2" type="github">
  <diagram id="uTx9-v3vwXF00OpXnOEW" name="Page-1">
    <mxGraphModel dx="1141" dy="615" grid="1" gridSize="10" guides="1" tooltips="1" connect="1" arrows="1" fold="1" page="1" pageScale="1" pageWidth="1169" pageHeight="1654" math="0" shadow="0">
      <root>
        <mxCell id="0" />
        <mxCell id="1" parent="0" />
        <mxCell id="ECpFYh-r3xCetCUCD9OD-1" value="&lt;font style=&quot;font-size: 16px&quot;&gt;&lt;b&gt;Thread A&lt;/b&gt;&lt;/font&gt;" style="rounded=1;whiteSpace=wrap;html=1;" parent="1" vertex="1">
          <mxGeometry x="170" y="60" width="120" height="60" as="geometry" />
        </mxCell>
        <mxCell id="ECpFYh-r3xCetCUCD9OD-2" value="&lt;font style=&quot;font-size: 16px&quot;&gt;&lt;b&gt;Redis Server&lt;/b&gt;&lt;/font&gt;" style="rounded=1;whiteSpace=wrap;html=1;" parent="1" vertex="1">
          <mxGeometry x="510" y="60" width="120" height="60" as="geometry" />
        </mxCell>
        <mxCell id="ECpFYh-r3xCetCUCD9OD-4" value="&lt;font style=&quot;font-size: 16px&quot;&gt;&lt;b&gt;Thread B&lt;/b&gt;&lt;/font&gt;" style="rounded=1;whiteSpace=wrap;html=1;" parent="1" vertex="1">
          <mxGeometry x="850" y="60" width="120" height="60" as="geometry" />
        </mxCell>
        <mxCell id="ECpFYh-r3xCetCUCD9OD-5" value="" style="endArrow=none;dashed=1;html=1;entryX=0.583;entryY=1;entryDx=0;entryDy=0;entryPerimeter=0;" parent="1" target="ECpFYh-r3xCetCUCD9OD-1" edge="1">
          <mxGeometry width="50" height="50" relative="1" as="geometry">
            <mxPoint x="240" y="600" as="sourcePoint" />
            <mxPoint x="610" y="290" as="targetPoint" />
          </mxGeometry>
        </mxCell>
        <mxCell id="ECpFYh-r3xCetCUCD9OD-6" value="" style="endArrow=none;dashed=1;html=1;entryX=0.583;entryY=1;entryDx=0;entryDy=0;entryPerimeter=0;" parent="1" edge="1">
          <mxGeometry width="50" height="50" relative="1" as="geometry">
            <mxPoint x="569.54" y="600" as="sourcePoint" />
            <mxPoint x="569.5" y="120" as="targetPoint" />
          </mxGeometry>
        </mxCell>
        <mxCell id="ECpFYh-r3xCetCUCD9OD-7" value="" style="endArrow=none;dashed=1;html=1;entryX=0.583;entryY=1;entryDx=0;entryDy=0;entryPerimeter=0;" parent="1" edge="1">
          <mxGeometry width="50" height="50" relative="1" as="geometry">
            <mxPoint x="920.04" y="600" as="sourcePoint" />
            <mxPoint x="920" y="120" as="targetPoint" />
          </mxGeometry>
        </mxCell>
        <mxCell id="Qqk2eUYZ3Nk_iLM5AEox-1" value="" style="endArrow=classic;html=1;" edge="1" parent="1">
          <mxGeometry width="50" height="50" relative="1" as="geometry">
            <mxPoint x="240" y="210" as="sourcePoint" />
            <mxPoint x="570" y="210" as="targetPoint" />
          </mxGeometry>
        </mxCell>
        <mxCell id="Qqk2eUYZ3Nk_iLM5AEox-42" value="&lt;font style=&quot;font-size: 20px&quot; color=&quot;#ff3333&quot;&gt;1&lt;/font&gt;" style="edgeLabel;html=1;align=center;verticalAlign=middle;resizable=0;points=[];" vertex="1" connectable="0" parent="Qqk2eUYZ3Nk_iLM5AEox-1">
          <mxGeometry x="0.3636" relative="1" as="geometry">
            <mxPoint as="offset" />
          </mxGeometry>
        </mxCell>
        <mxCell id="Qqk2eUYZ3Nk_iLM5AEox-7" value="处理订单ORDER_1" style="text;html=1;strokeColor=none;fillColor=none;align=center;verticalAlign=middle;whiteSpace=wrap;rounded=0;" vertex="1" parent="1">
          <mxGeometry x="1000" y="130" width="110" height="70" as="geometry" />
        </mxCell>
        <mxCell id="Qqk2eUYZ3Nk_iLM5AEox-9" value="" style="shape=flexArrow;endArrow=classic;html=1;" edge="1" parent="1">
          <mxGeometry width="50" height="50" relative="1" as="geometry">
            <mxPoint x="80" y="170" as="sourcePoint" />
            <mxPoint x="240" y="170" as="targetPoint" />
          </mxGeometry>
        </mxCell>
        <mxCell id="Qqk2eUYZ3Nk_iLM5AEox-10" value="&lt;span style=&quot;background-color: rgb(248 , 249 , 250)&quot;&gt;&lt;font style=&quot;font-size: 14px&quot;&gt;处理订单ORDER_1&lt;/font&gt;&lt;/span&gt;" style="edgeLabel;html=1;align=center;verticalAlign=middle;resizable=0;points=[];" vertex="1" connectable="0" parent="Qqk2eUYZ3Nk_iLM5AEox-9">
          <mxGeometry x="-0.575" y="1" relative="1" as="geometry">
            <mxPoint as="offset" />
          </mxGeometry>
        </mxCell>
        <mxCell id="Qqk2eUYZ3Nk_iLM5AEox-11" value="" style="shape=flexArrow;endArrow=classic;html=1;" edge="1" parent="1">
          <mxGeometry width="50" height="50" relative="1" as="geometry">
            <mxPoint x="990" y="160" as="sourcePoint" />
            <mxPoint x="920" y="160" as="targetPoint" />
          </mxGeometry>
        </mxCell>
        <mxCell id="Qqk2eUYZ3Nk_iLM5AEox-13" value="&lt;font style=&quot;font-size: 14px&quot;&gt;线程A处理订单ORDER_1，先去redis中获取锁，向redis发送setnx(ORDER_1,RANDOM_1,5S)，成功返回获取ORDER_1的锁&lt;/font&gt;" style="text;html=1;strokeColor=none;fillColor=none;align=left;verticalAlign=middle;whiteSpace=wrap;rounded=0;" vertex="1" parent="1">
          <mxGeometry x="270" y="145" width="280" height="55" as="geometry" />
        </mxCell>
        <mxCell id="Qqk2eUYZ3Nk_iLM5AEox-14" value="" style="endArrow=classic;html=1;" edge="1" parent="1">
          <mxGeometry width="50" height="50" relative="1" as="geometry">
            <mxPoint x="570" y="240" as="sourcePoint" />
            <mxPoint x="240" y="240" as="targetPoint" />
          </mxGeometry>
        </mxCell>
        <mxCell id="Qqk2eUYZ3Nk_iLM5AEox-43" value="&lt;font color=&quot;#ff3333&quot; style=&quot;font-size: 20px&quot;&gt;2&lt;/font&gt;" style="edgeLabel;html=1;align=center;verticalAlign=middle;resizable=0;points=[];" vertex="1" connectable="0" parent="Qqk2eUYZ3Nk_iLM5AEox-14">
          <mxGeometry x="-0.7394" y="-1" relative="1" as="geometry">
            <mxPoint as="offset" />
          </mxGeometry>
        </mxCell>
        <mxCell id="Qqk2eUYZ3Nk_iLM5AEox-15" value="&lt;font style=&quot;font-size: 14px&quot;&gt;返回1，此时redis中ORDER_1的值为RANDOM_1&lt;/font&gt;" style="text;html=1;strokeColor=none;fillColor=none;align=center;verticalAlign=middle;whiteSpace=wrap;rounded=0;" vertex="1" parent="1">
          <mxGeometry x="300" y="250" width="200" height="20" as="geometry" />
        </mxCell>
        <mxCell id="Qqk2eUYZ3Nk_iLM5AEox-16" value="" style="endArrow=classic;html=1;" edge="1" parent="1">
          <mxGeometry width="50" height="50" relative="1" as="geometry">
            <mxPoint x="920" y="280" as="sourcePoint" />
            <mxPoint x="570" y="280" as="targetPoint" />
          </mxGeometry>
        </mxCell>
        <mxCell id="Qqk2eUYZ3Nk_iLM5AEox-44" value="&lt;font color=&quot;#ff3333&quot; style=&quot;font-size: 20px&quot;&gt;3&lt;/font&gt;" style="edgeLabel;html=1;align=center;verticalAlign=middle;resizable=0;points=[];" vertex="1" connectable="0" parent="Qqk2eUYZ3Nk_iLM5AEox-16">
          <mxGeometry x="-0.8343" y="4" relative="1" as="geometry">
            <mxPoint y="-6" as="offset" />
          </mxGeometry>
        </mxCell>
        <mxCell id="Qqk2eUYZ3Nk_iLM5AEox-17" value="&lt;font style=&quot;font-size: 14px&quot;&gt;setNx(ORDER_1,RANDOM_2,5S)&lt;/font&gt;" style="text;html=1;strokeColor=none;fillColor=none;align=center;verticalAlign=middle;whiteSpace=wrap;rounded=0;" vertex="1" parent="1">
          <mxGeometry x="640" y="235" width="220" height="50" as="geometry" />
        </mxCell>
        <mxCell id="Qqk2eUYZ3Nk_iLM5AEox-18" value="" style="endArrow=classic;html=1;" edge="1" parent="1">
          <mxGeometry width="50" height="50" relative="1" as="geometry">
            <mxPoint x="570" y="300" as="sourcePoint" />
            <mxPoint x="920" y="300" as="targetPoint" />
          </mxGeometry>
        </mxCell>
        <mxCell id="Qqk2eUYZ3Nk_iLM5AEox-46" value="&lt;span style=&quot;font-size: 20px&quot;&gt;&lt;font color=&quot;#ff3333&quot;&gt;4&lt;/font&gt;&lt;/span&gt;" style="edgeLabel;html=1;align=center;verticalAlign=middle;resizable=0;points=[];" vertex="1" connectable="0" parent="Qqk2eUYZ3Nk_iLM5AEox-18">
          <mxGeometry x="0.6457" y="-1" relative="1" as="geometry">
            <mxPoint as="offset" />
          </mxGeometry>
        </mxCell>
        <mxCell id="Qqk2eUYZ3Nk_iLM5AEox-19" value="&lt;font style=&quot;font-size: 14px&quot;&gt;此时redis中已经将ORDER_1加锁，返回0，线程B处理ORDER_1失败&lt;/font&gt;" style="text;html=1;strokeColor=none;fillColor=none;align=center;verticalAlign=middle;whiteSpace=wrap;rounded=0;" vertex="1" parent="1">
          <mxGeometry x="600" y="310" width="280" height="30" as="geometry" />
        </mxCell>
        <mxCell id="Qqk2eUYZ3Nk_iLM5AEox-20" value="" style="endArrow=classic;html=1;" edge="1" parent="1" source="Qqk2eUYZ3Nk_iLM5AEox-55">
          <mxGeometry width="50" height="50" relative="1" as="geometry">
            <mxPoint x="920" y="380" as="sourcePoint" />
            <mxPoint x="920" y="430" as="targetPoint" />
            <Array as="points">
              <mxPoint x="1010" y="380" />
              <mxPoint x="1010" y="430" />
            </Array>
          </mxGeometry>
        </mxCell>
        <mxCell id="Qqk2eUYZ3Nk_iLM5AEox-21" value="" style="endArrow=classic;html=1;" edge="1" parent="1">
          <mxGeometry width="50" height="50" relative="1" as="geometry">
            <mxPoint x="920" y="460" as="sourcePoint" />
            <mxPoint x="570" y="460" as="targetPoint" />
          </mxGeometry>
        </mxCell>
        <mxCell id="Qqk2eUYZ3Nk_iLM5AEox-22" value="&lt;font style=&quot;font-size: 14px&quot;&gt;自旋操作等待锁释放，因为自旋可能出现死循环，所以需要设置自旋时间，当超时后直接放弃获取锁&lt;/font&gt;" style="text;html=1;strokeColor=none;fillColor=none;align=center;verticalAlign=middle;whiteSpace=wrap;rounded=0;" vertex="1" parent="1">
          <mxGeometry x="1020" y="380" width="120" height="120" as="geometry" />
        </mxCell>
        <mxCell id="Qqk2eUYZ3Nk_iLM5AEox-24" value="" style="endArrow=classic;html=1;" edge="1" parent="1">
          <mxGeometry width="50" height="50" relative="1" as="geometry">
            <mxPoint x="570" y="360" as="sourcePoint" />
            <mxPoint x="570" y="420" as="targetPoint" />
            <Array as="points">
              <mxPoint x="520" y="360" />
              <mxPoint x="520" y="420" />
            </Array>
          </mxGeometry>
        </mxCell>
        <mxCell id="Qqk2eUYZ3Nk_iLM5AEox-25" value="&lt;font style=&quot;font-size: 14px&quot;&gt;过了5S的超时时间，释放key&lt;/font&gt;" style="text;html=1;strokeColor=none;fillColor=none;align=center;verticalAlign=middle;whiteSpace=wrap;rounded=0;" vertex="1" parent="1">
          <mxGeometry x="410" y="370" width="110" height="50" as="geometry" />
        </mxCell>
        <mxCell id="Qqk2eUYZ3Nk_iLM5AEox-26" value="" style="endArrow=classic;html=1;" edge="1" parent="1">
          <mxGeometry width="50" height="50" relative="1" as="geometry">
            <mxPoint x="240" y="560" as="sourcePoint" />
            <mxPoint x="570" y="560" as="targetPoint" />
          </mxGeometry>
        </mxCell>
        <mxCell id="Qqk2eUYZ3Nk_iLM5AEox-27" value="" style="endArrow=classic;html=1;" edge="1" parent="1">
          <mxGeometry width="50" height="50" relative="1" as="geometry">
            <mxPoint x="572" y="480" as="sourcePoint" />
            <mxPoint x="922" y="480" as="targetPoint" />
          </mxGeometry>
        </mxCell>
        <mxCell id="Qqk2eUYZ3Nk_iLM5AEox-28" value="&lt;span style=&quot;font-size: 14px&quot;&gt;返回1，此时redis中ORDER_1的值为RANDOM_2&lt;/span&gt;" style="text;html=1;strokeColor=none;fillColor=none;align=center;verticalAlign=middle;whiteSpace=wrap;rounded=0;" vertex="1" parent="1">
          <mxGeometry x="605" y="490" width="280" height="30" as="geometry" />
        </mxCell>
        <mxCell id="Qqk2eUYZ3Nk_iLM5AEox-30" value="" style="shape=flexArrow;endArrow=classic;html=1;width=53;endSize=13.8;" edge="1" parent="1">
          <mxGeometry width="50" height="50" relative="1" as="geometry">
            <mxPoint x="180" y="237.5" as="sourcePoint" />
            <mxPoint x="180" y="553" as="targetPoint" />
          </mxGeometry>
        </mxCell>
        <mxCell id="Qqk2eUYZ3Nk_iLM5AEox-33" value="&lt;span style=&quot;background-color: rgb(255 , 255 , 255)&quot;&gt;&lt;font style=&quot;font-size: 15px&quot;&gt;获得锁的时间&lt;/font&gt;&lt;/span&gt;" style="text;html=1;strokeColor=none;fillColor=none;align=center;verticalAlign=middle;whiteSpace=wrap;rounded=0;" vertex="1" parent="1">
          <mxGeometry x="170" y="310" width="20" height="140" as="geometry" />
        </mxCell>
        <mxCell id="Qqk2eUYZ3Nk_iLM5AEox-34" value="" style="shape=flexArrow;endArrow=classic;html=1;width=53;endSize=13.8;" edge="1" parent="1">
          <mxGeometry width="50" height="50" relative="1" as="geometry">
            <mxPoint x="960" y="477" as="sourcePoint" />
            <mxPoint x="960" y="720" as="targetPoint" />
          </mxGeometry>
        </mxCell>
        <mxCell id="Qqk2eUYZ3Nk_iLM5AEox-35" value="&lt;span style=&quot;background-color: rgb(255 , 255 , 255)&quot;&gt;&lt;font style=&quot;font-size: 15px&quot;&gt;获得锁的时间&lt;/font&gt;&lt;/span&gt;" style="text;html=1;strokeColor=none;fillColor=none;align=center;verticalAlign=middle;whiteSpace=wrap;rounded=0;" vertex="1" parent="1">
          <mxGeometry x="950" y="505.5" width="20" height="140" as="geometry" />
        </mxCell>
        <mxCell id="Qqk2eUYZ3Nk_iLM5AEox-38" value="&lt;font style=&quot;font-size: 14px&quot;&gt;释放锁时需要判断当前锁是否是该线程所持有，get(ORDER_1),匹配返回值与RANDOM_1是否一样，不一样表示锁已经被其他线程占用，此时已经非线程安全了，所以当KEY超时时需要将该线程对应的事务进行回滚。或者持久化操作前，先判断是否还持有锁。&lt;/font&gt;" style="text;html=1;strokeColor=none;fillColor=none;align=left;verticalAlign=middle;whiteSpace=wrap;rounded=0;" vertex="1" parent="1">
          <mxGeometry x="255" y="560" width="310" height="110" as="geometry" />
        </mxCell>
        <mxCell id="Qqk2eUYZ3Nk_iLM5AEox-39" value="" style="endArrow=classic;html=1;" edge="1" parent="1" source="Qqk2eUYZ3Nk_iLM5AEox-49">
          <mxGeometry width="50" height="50" relative="1" as="geometry">
            <mxPoint x="240" y="430" as="sourcePoint" />
            <mxPoint x="240" y="480" as="targetPoint" />
            <Array as="points">
              <mxPoint x="300" y="430" />
              <mxPoint x="300" y="480" />
            </Array>
          </mxGeometry>
        </mxCell>
        <mxCell id="Qqk2eUYZ3Nk_iLM5AEox-41" value="&lt;font style=&quot;font-size: 14px&quot;&gt;当自身运行时间大于超时时间，需要将持久化操作回滚&lt;/font&gt;" style="text;html=1;strokeColor=none;fillColor=none;align=center;verticalAlign=middle;whiteSpace=wrap;rounded=0;" vertex="1" parent="1">
          <mxGeometry x="310" y="440" width="150" height="60" as="geometry" />
        </mxCell>
        <mxCell id="Qqk2eUYZ3Nk_iLM5AEox-48" value="&lt;span style=&quot;font-size: 20px ; background-color: rgb(255 , 255 , 255)&quot;&gt;&lt;font color=&quot;#ff3333&quot;&gt;5&lt;/font&gt;&lt;/span&gt;" style="text;html=1;align=center;verticalAlign=middle;resizable=0;points=[];autosize=1;" vertex="1" parent="1">
          <mxGeometry x="537" y="351" width="30" height="20" as="geometry" />
        </mxCell>
        <mxCell id="Qqk2eUYZ3Nk_iLM5AEox-49" value="&lt;span style=&quot;font-size: 20px ; background-color: rgb(255 , 255 , 255)&quot;&gt;&lt;font color=&quot;#ff3333&quot;&gt;6&lt;/font&gt;&lt;/span&gt;" style="text;html=1;align=center;verticalAlign=middle;resizable=0;points=[];autosize=1;" vertex="1" parent="1">
          <mxGeometry x="270" y="420" width="30" height="20" as="geometry" />
        </mxCell>
        <mxCell id="Qqk2eUYZ3Nk_iLM5AEox-50" value="" style="endArrow=classic;html=1;" edge="1" parent="1" target="Qqk2eUYZ3Nk_iLM5AEox-49">
          <mxGeometry width="50" height="50" relative="1" as="geometry">
            <mxPoint x="240" y="430" as="sourcePoint" />
            <mxPoint x="240" y="480" as="targetPoint" />
            <Array as="points" />
          </mxGeometry>
        </mxCell>
        <mxCell id="Qqk2eUYZ3Nk_iLM5AEox-51" value="&lt;span style=&quot;font-size: 20px ; background-color: rgb(255 , 255 , 255)&quot;&gt;&lt;font color=&quot;#ff3333&quot;&gt;7&lt;/font&gt;&lt;/span&gt;" style="text;html=1;align=center;verticalAlign=middle;resizable=0;points=[];autosize=1;" vertex="1" parent="1">
          <mxGeometry x="735" y="440" width="30" height="20" as="geometry" />
        </mxCell>
        <mxCell id="Qqk2eUYZ3Nk_iLM5AEox-52" value="&lt;span style=&quot;font-size: 20px ; background-color: rgb(255 , 255 , 255)&quot;&gt;&lt;font color=&quot;#ff3333&quot;&gt;8&lt;/font&gt;&lt;/span&gt;" style="text;html=1;align=center;verticalAlign=middle;resizable=0;points=[];autosize=1;" vertex="1" parent="1">
          <mxGeometry x="870" y="485.5" width="30" height="20" as="geometry" />
        </mxCell>
        <mxCell id="Qqk2eUYZ3Nk_iLM5AEox-54" value="&lt;span style=&quot;font-size: 20px ; background-color: rgb(255 , 255 , 255)&quot;&gt;&lt;font color=&quot;#ff3333&quot;&gt;9&lt;/font&gt;&lt;/span&gt;" style="text;html=1;align=center;verticalAlign=middle;resizable=0;points=[];autosize=1;" vertex="1" parent="1">
          <mxGeometry x="430" y="540" width="30" height="20" as="geometry" />
        </mxCell>
        <mxCell id="Qqk2eUYZ3Nk_iLM5AEox-55" value="&lt;span style=&quot;font-size: 20px ; background-color: rgb(255 , 255 , 255)&quot;&gt;&lt;font color=&quot;#ff3333&quot;&gt;10&lt;/font&gt;&lt;/span&gt;" style="text;html=1;align=center;verticalAlign=middle;resizable=0;points=[];autosize=1;" vertex="1" parent="1">
          <mxGeometry x="965" y="371" width="40" height="20" as="geometry" />
        </mxCell>
        <mxCell id="Qqk2eUYZ3Nk_iLM5AEox-56" value="" style="endArrow=classic;html=1;" edge="1" parent="1" target="Qqk2eUYZ3Nk_iLM5AEox-55">
          <mxGeometry width="50" height="50" relative="1" as="geometry">
            <mxPoint x="920" y="380" as="sourcePoint" />
            <mxPoint x="920" y="430" as="targetPoint" />
            <Array as="points" />
          </mxGeometry>
        </mxCell>
      </root>
    </mxGraphModel>
  </diagram>
</mxfile>
